# xmcd
#
# Track frame offsets: 
#        150
#        22461
#        44034
#        65527
#        88881
#        103843
#        123615
#        137427
#        156005
#        172210
#        193242
#        206456
#
# Disc length: 2993 seconds
#
# Revision: 0
# Processed by: cddbd v1.5.2PL0 Copyright (c) Steve Scherf et al.
# Submitted via: ExactAudioCopy v0.99pb4
#
DISCID=bd0baf0c
DTITLE=Climax Blues Band - Big Blues
DYEAR=2003
DGENRE=Blues
TTITLE0=Little Red Rooster
TTITLE1=Spoonful
TTITLE2=The Seventh Son
TTITLE3=Third Degree
TTITLE4=I Am Ready
TTITLE5=Wang Dang Doodle
TTITLE6=My Babe
TTITLE7=I'm Your Hoochie Coochie Man
TTITLE8=You Can't Judge a Book by Looking at the Cover
TTITLE9=Big Boss Man
TTITLE10=I Love The Life I Live
TTITLE11=That's my Babe
EXTD=
EXTT0=
EXTT1=
EXTT2=
EXTT3=
EXTT4=
EXTT5=
EXTT6=
EXTT7=
EXTT8=
EXTT9=
EXTT10=
EXTT11=
PLAYORDER=
